<?xml version="1.0" encoding="utf-8"?>
<!DOCTYPE svg PUBLIC "-//W3C//DTD SVG 1.1//EN" "http://www.w3.org/Graphics/SVG/1.1/DTD/svg11.dtd">
<svg id="Layer_2" data-name="Layer 2" xmlns="http://www.w3.org/2000/svg" viewBox="0 0 128 189"
     x="0px" y="0px" width="128px" height="189px" enable-background="new 0 0 185 188" xml:space="preserve">
  <g>
    <g>
      <path d="M26.63,152.93l2.93-16.05h6.12l-5.43,25.59h-6.4l-3.43-14.59-3.36,14.59H10.68L5.23,136.88h6.14l2.93,16.05,3.52-16.05h5.24Z" style="fill: #e6e6e5"/>
      <path d="M50.39,155.67a2.55,2.55,0,0,0-1-2.11A12.1,12.1,0,0,0,46.07,152a31.2,31.2,0,0,1-3.94-1.57c-3.32-1.63-5-3.86-5-6.71A6,6,0,0,1,38.39,140a8.08,8.08,0,0,1,3.51-2.54,13.71,13.71,0,0,1,5.1-.9,12,12,0,0,1,5,1,7.88,7.88,0,0,1,3.4,2.81,7.3,7.3,0,0,1,1.21,4.15H50.41a3.08,3.08,0,0,0-1-2.42,3.7,3.7,0,0,0-2.59-.86,4.15,4.15,0,0,0-2.61.73,2.22,2.22,0,0,0-1,1.85,2.27,2.27,0,0,0,1.05,1.79,13.56,13.56,0,0,0,3.71,1.65A23.35,23.35,0,0,1,52.41,149q4.16,2.4,4.15,6.6A6.25,6.25,0,0,1,54,160.91a11.25,11.25,0,0,1-7,1.92,13.84,13.84,0,0,1-5.63-1.12,8.46,8.46,0,0,1-3.8-3.06,8,8,0,0,1-1.27-4.47h6.19a3.92,3.92,0,0,0,1.06,3,5,5,0,0,0,3.45,1,4,4,0,0,0,2.42-.66A2.19,2.19,0,0,0,50.39,155.67Z" style="fill: #e6e6e5"/>
      <path d="M78.92,141.64H71.23v20.83H65.06V141.64H57.52v-4.76h21.4Z" style="fill: #e6e6e5"/>
      <path d="M93,157.69H84.59l-1.48,4.78H76.52l9.39-25.59h5.8l9.46,25.59H94.54Zm-7-4.76h5.5l-2.76-8.88Z" style="fill: #e6e6e5"/>
      <path d="M111.64,153.42H108.3v9.05h-6.17V136.88H112.2a11.21,11.21,0,0,1,7.12,2,6.86,6.86,0,0,1,2.57,5.71,8.29,8.29,0,0,1-1.08,4.42,7.76,7.76,0,0,1-3.39,2.85l5.35,10.33v.26h-6.61Zm-3.34-4.74h3.9a3.52,3.52,0,0,0,2.65-.93,4.23,4.23,0,0,0,0-5.18,3.47,3.47,0,0,0-2.64-.94h-3.9Z" style="fill: #e6e6e5"/>
    </g>
    <g>
      <path d="M16.43,178.3H7.82v-1.47l4.27-4.65a11,11,0,0,0,1.31-1.72,2.78,2.78,0,0,0,.39-1.38,2.11,2.11,0,0,0-.51-1.48,1.79,1.79,0,0,0-1.39-.56,2.08,2.08,0,0,0-1.61.63,2.49,2.49,0,0,0-.57,1.73H7.58a4.1,4.1,0,0,1,.53-2.1,3.63,3.63,0,0,1,1.52-1.46,4.91,4.91,0,0,1,2.28-.52,4.36,4.36,0,0,1,2.94.94,3.24,3.24,0,0,1,1.08,2.59,4.4,4.4,0,0,1-.54,2,11.38,11.38,0,0,1-1.77,2.38l-3.13,3.35h5.94Z" style="fill: #e6e6e5"/>
      <path d="M28.2,172.91a7,7,0,0,1-1,4.16,3.65,3.65,0,0,1-3.14,1.4,3.67,3.67,0,0,1-3.12-1.37,6.69,6.69,0,0,1-1.08-4v-2.22a6.87,6.87,0,0,1,1-4.14A3.68,3.68,0,0,1,24,165.32a3.71,3.71,0,0,1,3.14,1.35,6.72,6.72,0,0,1,1.06,4Zm-2.14-2.39a5.4,5.4,0,0,0-.49-2.64,1.89,1.89,0,0,0-3.11,0,5,5,0,0,0-.51,2.48v2.91a5.5,5.5,0,0,0,.5,2.67,1.69,1.69,0,0,0,1.57.88,1.64,1.64,0,0,0,1.52-.82,5.22,5.22,0,0,0,.52-2.54Z" style="fill: #e6e6e5"/>
      <path d="M37.67,178.3H35.54V168l-3.14,1.06v-1.79l5-1.84h.27Z" style="fill: #e6e6e5"/>
      <path d="M52,168.87a3,3,0,0,1-.48,1.68,3.29,3.29,0,0,1-1.32,1.15A3.66,3.66,0,0,1,51.72,173a3.22,3.22,0,0,1,.54,1.83,3.36,3.36,0,0,1-1.15,2.67,5.18,5.18,0,0,1-6.09,0,3.33,3.33,0,0,1-1.15-2.67,3.22,3.22,0,0,1,.55-1.85A3.55,3.55,0,0,1,46,171.7a3.26,3.26,0,0,1-1.31-1.15,3,3,0,0,1-.48-1.68,3.31,3.31,0,0,1,1.06-2.59,4.71,4.71,0,0,1,5.7,0A3.33,3.33,0,0,1,52,168.87Zm-1.85,5.83a2.1,2.1,0,0,0-.57-1.53,2.19,2.19,0,0,0-3,0A2.1,2.1,0,0,0,46,174.7a2,2,0,0,0,.55,1.5,2,2,0,0,0,1.51.57,1.89,1.89,0,0,0,2-2.07ZM49.85,169a2,2,0,0,0-.49-1.37,1.65,1.65,0,0,0-1.3-.54,1.69,1.69,0,0,0-1.29.51,2,2,0,0,0-.47,1.4,2,2,0,0,0,.48,1.4,1.87,1.87,0,0,0,2.59,0A2,2,0,0,0,49.85,169Z" style="fill: #e6e6e5"/>
      <path d="M72.61,175.13l2-9.63h2.2l-3,12.8H71.7L69.27,169l-2.49,9.35H64.65l-3-12.8H63.9l2,9.61,2.45-9.61h1.86Z" style="fill: #e6e6e5"/>
      <path d="M80,166.32a1.13,1.13,0,0,1,.31-.82,1.16,1.16,0,0,1,.89-.33,1.19,1.19,0,0,1,.9.33,1.13,1.13,0,0,1,.31.82,1.09,1.09,0,0,1-.31.8,1.22,1.22,0,0,1-.9.32,1.2,1.2,0,0,1-.89-.32A1.09,1.09,0,0,1,80,166.32Zm2.26,12H80.14v-9.51h2.13Z" style="fill: #e6e6e5"/>
      <path d="M88.38,168.79l.06,1.09a3.43,3.43,0,0,1,2.77-1.27q3,0,3,3.4v6.29H92.1v-6.17a2,2,0,0,0-.39-1.34,1.65,1.65,0,0,0-1.28-.43,2.07,2.07,0,0,0-1.93,1.17v6.77H86.37v-9.51Z" style="fill: #e6e6e5"/>
      <path d="M100.89,166.47v2.32h1.67v1.58h-1.67v5.31a1.17,1.17,0,0,0,.21.78,1,1,0,0,0,.77.24,3.25,3.25,0,0,0,.75-.08v1.65a5.51,5.51,0,0,1-1.41.2c-1.64,0-2.46-.9-2.46-2.71v-5.39H97.19v-1.58h1.56v-2.32Z" style="fill: #e6e6e5"/>
      <path d="M110.18,178.47a4.39,4.39,0,0,1-3.29-1.28,4.64,4.64,0,0,1-1.26-3.4v-.27a5.64,5.64,0,0,1,.55-2.54,4.24,4.24,0,0,1,1.54-1.75,4.13,4.13,0,0,1,2.22-.62,3.73,3.73,0,0,1,3,1.24,5.27,5.27,0,0,1,1.06,3.51v.86h-6.22a2.9,2.9,0,0,0,.79,1.86,2.36,2.36,0,0,0,1.74.69,2.91,2.91,0,0,0,2.39-1.19l1.15,1.1a3.78,3.78,0,0,1-1.53,1.32A4.81,4.81,0,0,1,110.18,178.47Zm-.25-8.15a1.8,1.8,0,0,0-1.42.62,3.19,3.19,0,0,0-.69,1.71h4.07v-.16a2.65,2.65,0,0,0-.57-1.62A1.82,1.82,0,0,0,109.93,170.32Z" style="fill: #e6e6e5"/>
      <path d="M122.43,170.74a4.94,4.94,0,0,0-.87-.07,1.94,1.94,0,0,0-2,1.12v6.51h-2.14v-9.51h2l.05,1.06a2.41,2.41,0,0,1,2.15-1.24,2,2,0,0,1,.75.12Z" style="fill: #e6e6e5"/>
    </g>
  </g>
  <g>
    <g>
      <path d="M26.63,89.93l2.93-16.05h6.12L30.25,99.47h-6.4L20.42,84.88,17.06,99.47H10.68L5.23,73.88h6.14L14.3,89.93l3.52-16.05h5.24Z" style="fill: #4e4e4e"/>
      <path d="M50.39,92.67a2.55,2.55,0,0,0-1-2.11A12.1,12.1,0,0,0,46.07,89a31.2,31.2,0,0,1-3.94-1.57c-3.32-1.63-5-3.86-5-6.71A6,6,0,0,1,38.39,77a8.08,8.08,0,0,1,3.51-2.54,13.71,13.71,0,0,1,5.1-.9,12,12,0,0,1,5,1,7.88,7.88,0,0,1,3.4,2.81,7.3,7.3,0,0,1,1.21,4.15H50.41a3.08,3.08,0,0,0-1-2.42,3.7,3.7,0,0,0-2.59-.86,4.15,4.15,0,0,0-2.61.73,2.22,2.22,0,0,0-1,1.85,2.27,2.27,0,0,0,1.05,1.79,13.56,13.56,0,0,0,3.71,1.65A23.35,23.35,0,0,1,52.41,86q4.16,2.4,4.15,6.6A6.25,6.25,0,0,1,54,97.91a11.25,11.25,0,0,1-7,1.92,13.84,13.84,0,0,1-5.63-1.12,8.46,8.46,0,0,1-3.8-3.06,8,8,0,0,1-1.27-4.47h6.19a3.92,3.92,0,0,0,1.06,3,5,5,0,0,0,3.45,1,4,4,0,0,0,2.42-.66A2.19,2.19,0,0,0,50.39,92.67Z" style="fill: #4e4e4e"/>
      <path d="M78.92,78.64H71.23V99.47H65.06V78.64H57.52V73.88h21.4Z" style="fill: #4e4e4e"/>
      <path d="M93,94.69H84.59l-1.48,4.78H76.52l9.39-25.59h5.8l9.46,25.59H94.54Zm-7-4.76h5.5l-2.76-8.88Z" style="fill: #4e4e4e"/>
      <path d="M111.64,90.42H108.3v9h-6.17V73.88H112.2a11.21,11.21,0,0,1,7.12,2,6.86,6.86,0,0,1,2.57,5.71A8.29,8.29,0,0,1,120.81,86a7.76,7.76,0,0,1-3.39,2.85l5.35,10.33v.26h-6.61Zm-3.34-4.74h3.9a3.52,3.52,0,0,0,2.65-.93,4.23,4.23,0,0,0,0-5.18,3.47,3.47,0,0,0-2.64-.94h-3.9Z" style="fill: #4e4e4e"/>
    </g>
    <g>
      <path d="M16.43,115.3H7.82v-1.47l4.27-4.65a11,11,0,0,0,1.31-1.72,2.78,2.78,0,0,0,.39-1.38,2.11,2.11,0,0,0-.51-1.48,1.79,1.79,0,0,0-1.39-.56,2.08,2.08,0,0,0-1.61.63,2.49,2.49,0,0,0-.57,1.73H7.58a4.1,4.1,0,0,1,.53-2.1,3.63,3.63,0,0,1,1.52-1.46,4.91,4.91,0,0,1,2.28-.52,4.36,4.36,0,0,1,2.94.94,3.24,3.24,0,0,1,1.08,2.59,4.4,4.4,0,0,1-.54,2,11.38,11.38,0,0,1-1.77,2.38l-3.13,3.35h5.94Z" style="fill: #4e4e4e"/>
      <path d="M28.2,109.91a7,7,0,0,1-1,4.16,3.65,3.65,0,0,1-3.14,1.4,3.67,3.67,0,0,1-3.12-1.37,6.69,6.69,0,0,1-1.08-4v-2.22a6.87,6.87,0,0,1,1-4.14A3.68,3.68,0,0,1,24,102.32a3.71,3.71,0,0,1,3.14,1.35,6.72,6.72,0,0,1,1.06,4Zm-2.14-2.39a5.4,5.4,0,0,0-.49-2.64,1.89,1.89,0,0,0-3.11,0,5,5,0,0,0-.51,2.48v2.91a5.5,5.5,0,0,0,.5,2.67,1.69,1.69,0,0,0,1.57.88,1.64,1.64,0,0,0,1.52-.82,5.22,5.22,0,0,0,.52-2.54Z" style="fill: #4e4e4e"/>
      <path d="M37.67,115.3H35.54V105l-3.14,1.06v-1.79l5-1.84h.27Z" style="fill: #4e4e4e"/>
      <path d="M52,105.87a3,3,0,0,1-.48,1.68,3.29,3.29,0,0,1-1.32,1.15A3.66,3.66,0,0,1,51.72,110a3.22,3.22,0,0,1,.54,1.83,3.36,3.36,0,0,1-1.15,2.67,5.18,5.18,0,0,1-6.09,0,3.33,3.33,0,0,1-1.15-2.67,3.22,3.22,0,0,1,.55-1.85A3.55,3.55,0,0,1,46,108.7a3.26,3.26,0,0,1-1.31-1.15,3,3,0,0,1-.48-1.68,3.31,3.31,0,0,1,1.06-2.59,4.71,4.71,0,0,1,5.7,0A3.33,3.33,0,0,1,52,105.87Zm-1.85,5.83a2.1,2.1,0,0,0-.57-1.53,2.19,2.19,0,0,0-3,0A2.1,2.1,0,0,0,46,111.7a2,2,0,0,0,.55,1.5,2,2,0,0,0,1.51.57,1.89,1.89,0,0,0,2-2.07ZM49.85,106a2,2,0,0,0-.49-1.37,1.65,1.65,0,0,0-1.3-.54,1.69,1.69,0,0,0-1.29.51,2,2,0,0,0-.47,1.4,2,2,0,0,0,.48,1.4,1.87,1.87,0,0,0,2.59,0A2,2,0,0,0,49.85,106Z" style="fill: #4e4e4e"/>
      <path d="M72.61,112.13l2-9.63h2.2l-3,12.8H71.7L69.27,106l-2.49,9.35H64.65l-3-12.8H63.9l2,9.61,2.45-9.61h1.86Z" style="fill: #4e4e4e"/>
      <path d="M80,103.32a1.13,1.13,0,0,1,.31-.82,1.16,1.16,0,0,1,.89-.33,1.19,1.19,0,0,1,.9.33,1.13,1.13,0,0,1,.31.82,1.09,1.09,0,0,1-.31.8,1.22,1.22,0,0,1-.9.32,1.2,1.2,0,0,1-.89-.32A1.09,1.09,0,0,1,80,103.32Zm2.26,12H80.14v-9.51h2.13Z" style="fill: #4e4e4e"/>
      <path d="M88.38,105.79l.06,1.09a3.43,3.43,0,0,1,2.77-1.27q3,0,3,3.4v6.29H92.1v-6.17a2,2,0,0,0-.39-1.34,1.65,1.65,0,0,0-1.28-.43,2.07,2.07,0,0,0-1.93,1.17v6.77H86.37v-9.51Z" style="fill: #4e4e4e"/>
      <path d="M100.89,103.47v2.32h1.67v1.58h-1.67v5.31a1.17,1.17,0,0,0,.21.78,1,1,0,0,0,.77.24,3.25,3.25,0,0,0,.75-.08v1.65a5.51,5.51,0,0,1-1.41.2c-1.64,0-2.46-.9-2.46-2.71v-5.39H97.19v-1.58h1.56v-2.32Z" style="fill: #4e4e4e"/>
      <path d="M110.18,115.47a4.39,4.39,0,0,1-3.29-1.28,4.64,4.64,0,0,1-1.26-3.4v-.27a5.64,5.64,0,0,1,.55-2.54,4.24,4.24,0,0,1,1.54-1.75,4.13,4.13,0,0,1,2.22-.62,3.73,3.73,0,0,1,3,1.24,5.27,5.27,0,0,1,1.06,3.51v.86h-6.22a2.9,2.9,0,0,0,.79,1.86,2.36,2.36,0,0,0,1.74.69,2.91,2.91,0,0,0,2.39-1.19l1.15,1.1a3.78,3.78,0,0,1-1.53,1.32A4.81,4.81,0,0,1,110.18,115.47Zm-.25-8.15a1.8,1.8,0,0,0-1.42.62,3.19,3.19,0,0,0-.69,1.71h4.07v-.16a2.65,2.65,0,0,0-.57-1.62A1.82,1.82,0,0,0,109.93,107.32Z" style="fill: #4e4e4e"/>
      <path d="M122.43,107.74a4.94,4.94,0,0,0-.87-.07,1.94,1.94,0,0,0-2,1.12v6.51h-2.14v-9.51h2l.05,1.06a2.41,2.41,0,0,1,2.15-1.24,2,2,0,0,1,.75.12Z" style="fill: #4e4e4e"/>
    </g>
  </g>
  <g>
    <g>
      <path d="M26.63,26.93l2.93-16h6.12L30.25,36.47h-6.4L20.42,21.88,17.06,36.47H10.68L5.23,10.88h6.14l2.93,16,3.52-16h5.24Z" style="fill: #4e4e4e"/>
      <path d="M50.39,29.67a2.55,2.55,0,0,0-1-2.11A12.1,12.1,0,0,0,46.07,26a31.2,31.2,0,0,1-3.94-1.57c-3.32-1.63-5-3.86-5-6.71A6,6,0,0,1,38.39,14a8.08,8.08,0,0,1,3.51-2.54,13.71,13.71,0,0,1,5.1-.9,12,12,0,0,1,5,1,7.88,7.88,0,0,1,3.4,2.81,7.3,7.3,0,0,1,1.21,4.15H50.41a3.08,3.08,0,0,0-1-2.42,3.7,3.7,0,0,0-2.59-.86,4.15,4.15,0,0,0-2.61.73,2.22,2.22,0,0,0-1,1.85,2.27,2.27,0,0,0,1.05,1.79,13.56,13.56,0,0,0,3.71,1.65A23.35,23.35,0,0,1,52.41,23q4.16,2.4,4.15,6.6A6.25,6.25,0,0,1,54,34.91a11.25,11.25,0,0,1-7,1.92,13.84,13.84,0,0,1-5.63-1.12,8.46,8.46,0,0,1-3.8-3.06,8,8,0,0,1-1.27-4.47h6.19a3.92,3.92,0,0,0,1.06,3,5,5,0,0,0,3.45,1,4,4,0,0,0,2.42-.66A2.19,2.19,0,0,0,50.39,29.67Z" style="fill: #4e4e4e"/>
      <path d="M78.92,15.64H71.23V36.47H65.06V15.64H57.52V10.88h21.4Z" style="fill: #4e4e4e"/>
      <path d="M93,31.69H84.59l-1.48,4.78H76.52l9.39-25.59h5.8l9.46,25.59H94.54Zm-7-4.76h5.5l-2.76-8.88Z" style="fill: #4e4e4e"/>
      <path d="M111.64,27.42H108.3v9h-6.17V10.88H112.2a11.21,11.21,0,0,1,7.12,2,6.86,6.86,0,0,1,2.57,5.71A8.29,8.29,0,0,1,120.81,23a7.76,7.76,0,0,1-3.39,2.85l5.35,10.33v.26h-6.61Zm-3.34-4.74h3.9a3.52,3.52,0,0,0,2.65-.93,3.59,3.59,0,0,0,.88-2.58,3.6,3.6,0,0,0-.89-2.6,3.47,3.47,0,0,0-2.64-.94h-3.9Z" style="fill: #4e4e4e"/>
    </g>
    <g>
      <path d="M16.43,52.3H7.82V50.83l4.27-4.65a11,11,0,0,0,1.31-1.72,2.78,2.78,0,0,0,.39-1.38,2.11,2.11,0,0,0-.51-1.48A1.79,1.79,0,0,0,11.89,41a2.08,2.08,0,0,0-1.61.63,2.49,2.49,0,0,0-.57,1.73H7.58a4.1,4.1,0,0,1,.53-2.1,3.63,3.63,0,0,1,1.52-1.46,4.91,4.91,0,0,1,2.28-.52,4.36,4.36,0,0,1,2.94.94,3.24,3.24,0,0,1,1.08,2.59,4.4,4.4,0,0,1-.54,2,11.38,11.38,0,0,1-1.77,2.38l-3.13,3.35h5.94Z" style="fill: #4e4e4e"/>
      <path d="M28.2,46.91a7,7,0,0,1-1,4.16A3.65,3.65,0,0,1,24,52.47,3.67,3.67,0,0,1,20.9,51.1a6.69,6.69,0,0,1-1.08-4V44.84a6.87,6.87,0,0,1,1-4.14A3.68,3.68,0,0,1,24,39.32a3.71,3.71,0,0,1,3.14,1.35,6.72,6.72,0,0,1,1.06,4Zm-2.14-2.39a5.4,5.4,0,0,0-.49-2.64,1.89,1.89,0,0,0-3.11-.05A5,5,0,0,0,22,44.31v2.91a5.5,5.5,0,0,0,.5,2.67,1.69,1.69,0,0,0,1.57.88A1.64,1.64,0,0,0,25.54,50a5.22,5.22,0,0,0,.52-2.54Z" style="fill: #4e4e4e"/>
      <path d="M37.67,52.3H35.54V42L32.4,43.08V41.29l5-1.84h.27Z" style="fill: #4e4e4e"/>
      <path d="M52,42.87a3,3,0,0,1-.48,1.68,3.29,3.29,0,0,1-1.32,1.15A3.66,3.66,0,0,1,51.72,47a3.22,3.22,0,0,1,.54,1.83,3.36,3.36,0,0,1-1.15,2.67,5.18,5.18,0,0,1-6.09,0,3.33,3.33,0,0,1-1.15-2.67A3.22,3.22,0,0,1,44.42,47,3.55,3.55,0,0,1,46,45.7a3.26,3.26,0,0,1-1.31-1.15,3,3,0,0,1-.48-1.68,3.31,3.31,0,0,1,1.06-2.59,4.71,4.71,0,0,1,5.7,0A3.33,3.33,0,0,1,52,42.87ZM50.12,48.7a2.1,2.1,0,0,0-.57-1.53,2.19,2.19,0,0,0-3,0A2.1,2.1,0,0,0,46,48.7a2,2,0,0,0,.55,1.5,2,2,0,0,0,1.51.57,1.89,1.89,0,0,0,2-2.07ZM49.85,43a2,2,0,0,0-.49-1.37,1.65,1.65,0,0,0-1.3-.54,1.69,1.69,0,0,0-1.29.51A2,2,0,0,0,46.3,43a2,2,0,0,0,.48,1.4,1.87,1.87,0,0,0,2.59,0A2,2,0,0,0,49.85,43Z" style="fill: #4e4e4e"/>
      <path d="M72.61,49.13l2-9.63h2.2l-3,12.8H71.7L69.27,43,66.78,52.3H64.65l-3-12.8H63.9l2,9.61,2.45-9.61h1.86Z" style="fill: #4e4e4e"/>
      <path d="M80,40.32a1.13,1.13,0,0,1,.31-.82,1.16,1.16,0,0,1,.89-.33,1.19,1.19,0,0,1,.9.33,1.13,1.13,0,0,1,.31.82,1.09,1.09,0,0,1-.31.8,1.22,1.22,0,0,1-.9.32,1.2,1.2,0,0,1-.89-.32A1.09,1.09,0,0,1,80,40.32Zm2.26,12H80.14V42.79h2.13Z" style="fill: #4e4e4e"/>
      <path d="M88.38,42.79l.06,1.09a3.43,3.43,0,0,1,2.77-1.27q3,0,3,3.4V52.3H92.1V46.13a2,2,0,0,0-.39-1.34,1.65,1.65,0,0,0-1.28-.43,2.07,2.07,0,0,0-1.93,1.17V52.3H86.37V42.79Z" style="fill: #4e4e4e"/>
      <path d="M100.89,40.47v2.32h1.67v1.58h-1.67v5.31a1.17,1.17,0,0,0,.21.78,1,1,0,0,0,.77.24,3.25,3.25,0,0,0,.75-.08v1.65a5.51,5.51,0,0,1-1.41.2c-1.64,0-2.46-.9-2.46-2.71V44.37H97.19V42.79h1.56V40.47Z" style="fill: #4e4e4e"/>
      <path d="M110.18,52.47a4.39,4.39,0,0,1-3.29-1.28,4.64,4.64,0,0,1-1.26-3.4v-.27a5.64,5.64,0,0,1,.55-2.54,4.24,4.24,0,0,1,1.54-1.75,4.13,4.13,0,0,1,2.22-.62,3.73,3.73,0,0,1,3,1.24A5.27,5.27,0,0,1,114,47.36v.86h-6.22a2.9,2.9,0,0,0,.79,1.86,2.36,2.36,0,0,0,1.74.69,2.91,2.91,0,0,0,2.39-1.19l1.15,1.1A3.78,3.78,0,0,1,112.32,52,4.81,4.81,0,0,1,110.18,52.47Zm-.25-8.15a1.8,1.8,0,0,0-1.42.62,3.19,3.19,0,0,0-.69,1.71h4.07v-.16a2.65,2.65,0,0,0-.57-1.62A1.82,1.82,0,0,0,109.93,44.32Z" style="fill: #4e4e4e"/>
      <path d="M122.43,44.74a4.94,4.94,0,0,0-.87-.07,1.94,1.94,0,0,0-2,1.12V52.3h-2.14V42.79h2l.05,1.06a2.41,2.41,0,0,1,2.15-1.24,2,2,0,0,1,.75.12Z" style="fill: #4e4e4e"/>
    </g>
  </g>
</svg>
