<svg version="1.1" xmlns="http://www.w3.org/2000/svg" xmlns:xlink="http://www.w3.org/1999/xlink" x="0px" y="0px"
	 width="128px" height="189px" viewBox="0 0 128 189" xml:space="preserve">
  <title>Logo sprites</title>
  <g id="Layer_3" data-name="Layer 3">
    <g>
      <g>
        <path d="M36.43,22a16.32,16.32,0,0,1-1.12,6.14A14,14,0,0,1,32.19,33a13.89,13.89,0,0,1-4.86,3.13,16.86,16.86,0,0,1-6.27,1.12H9.46V6.83h11.6A17.06,17.06,0,0,1,27.33,8a14.32,14.32,0,0,1,4.86,3.13,14,14,0,0,1,3.12,4.8A16.27,16.27,0,0,1,36.43,22Zm-5.78,0A13.87,13.87,0,0,0,30,17.53a9.52,9.52,0,0,0-1.91-3.36,8.25,8.25,0,0,0-3-2.11,10.41,10.41,0,0,0-4-.74H15.15V32.7h5.91a10.4,10.4,0,0,0,4-.73,8.37,8.37,0,0,0,3-2.11A9.52,9.52,0,0,0,30,26.5,13.94,13.94,0,0,0,30.65,22Z"/>
        <path d="M66.48,37.2H62.11a2,2,0,0,1-1.21-.37,2.17,2.17,0,0,1-.68-.91L58,29.72H45.37l-2.26,6.2a2.1,2.1,0,0,1-.67.88,1.87,1.87,0,0,1-1.2.4H36.85L48.78,6.83h5.77ZM46.82,25.73H56.5l-3.69-10.1c-.17-.45-.36-1-.56-1.59s-.4-1.27-.6-2c-.19.71-.39,1.38-.57,2s-.38,1.16-.56,1.62Z"/>
        <path d="M73.2,6.86a1.25,1.25,0,0,1,.45.13,1.53,1.53,0,0,1,.39.27c.12.12.26.28.42.47L90.4,28q-.09-.73-.12-1.44c0-.47,0-.9,0-1.31V6.83h5V37.2H92.31A2.56,2.56,0,0,1,91.2,37a2.5,2.5,0,0,1-.87-.76L74.46,16c0,.45.07.89.09,1.33s0,.84,0,1.21V37.2h-5V6.83h3A5.53,5.53,0,0,1,73.2,6.86Z"/>
        <path d="M117.63,12.35a1.49,1.49,0,0,1-.53.65,1.32,1.32,0,0,1-.73.19,1.88,1.88,0,0,1-.94-.32c-.35-.22-.76-.46-1.24-.73a11,11,0,0,0-1.67-.72,7,7,0,0,0-2.26-.33,6.56,6.56,0,0,0-2,.29,4.28,4.28,0,0,0-1.47.78,3.23,3.23,0,0,0-.9,1.21,4.11,4.11,0,0,0-.29,1.55,2.68,2.68,0,0,0,.6,1.78,5,5,0,0,0,1.58,1.22,14.84,14.84,0,0,0,2.25.9c.84.27,1.7.55,2.57.85a23.87,23.87,0,0,1,2.57,1,8.78,8.78,0,0,1,2.25,1.51A6.9,6.9,0,0,1,119,24.47a7.73,7.73,0,0,1,.6,3.21,10.47,10.47,0,0,1-.71,3.86,8.89,8.89,0,0,1-2.06,3.13,9.77,9.77,0,0,1-3.3,2.1,12.23,12.23,0,0,1-4.48.76,14.34,14.34,0,0,1-2.85-.28,15.06,15.06,0,0,1-2.7-.81,14.21,14.21,0,0,1-2.42-1.26,12.41,12.41,0,0,1-2-1.64l1.64-2.71a2.15,2.15,0,0,1,.55-.49,1.4,1.4,0,0,1,.73-.2,2,2,0,0,1,1.13.43q.62.43,1.44,1a11.08,11.08,0,0,0,1.95.95,7.5,7.5,0,0,0,2.7.43,5.56,5.56,0,0,0,3.74-1.14,4.13,4.13,0,0,0,1.32-3.29,3,3,0,0,0-.6-1.95,4.59,4.59,0,0,0-1.58-1.27,11.59,11.59,0,0,0-2.25-.87c-.84-.24-1.69-.5-2.56-.78a22.3,22.3,0,0,1-2.56-1,8.29,8.29,0,0,1-2.25-1.53,6.84,6.84,0,0,1-1.58-2.36,9,9,0,0,1-.6-3.5,8.39,8.39,0,0,1,2.59-6A9.62,9.62,0,0,1,106,7.23a11.35,11.35,0,0,1,4.22-.74,14.23,14.23,0,0,1,5,.84A11.14,11.14,0,0,1,119,9.69Z"/>
      </g>
      <g>
        <path d="M8.43,55l3.71-5.78a5.81,5.81,0,0,1,.36-.54A12.57,12.57,0,0,0,13.42,47a4,4,0,0,0,.29-1.6,3.17,3.17,0,0,0-.34-1.6,1.22,1.22,0,0,0-1.12-.56c-1.15,0-1.73.9-1.73,2.68v.49H8.6v-.5a5.09,5.09,0,0,1,.84-3.15,3.2,3.2,0,0,1,2.72-1.1,3.31,3.31,0,0,1,2.61,1,4,4,0,0,1,.88,2.78A5.38,5.38,0,0,1,15.44,47a5.16,5.16,0,0,1-.49,1.2q-.29.51-.9,1.44L10.7,54.72h4.61v1.62H8.43Z"/>
        <path d="M20.5,55.34a5,5,0,0,1-.91-3.14V45.92a5,5,0,0,1,.89-3.14,3.27,3.27,0,0,1,2.73-1.14,3.22,3.22,0,0,1,2.71,1.14,5,5,0,0,1,.89,3.14V52.2a5,5,0,0,1-.9,3.14,3.19,3.19,0,0,1-2.7,1.17A3.23,3.23,0,0,1,20.5,55.34Zm4.37-3.12V45.9a4.7,4.7,0,0,0-.35-2,1.54,1.54,0,0,0-2.62,0,4.53,4.53,0,0,0-.36,2v6.32c0,1.8.56,2.7,1.67,2.7S24.87,54,24.87,52.22Z"/>
        <path d="M33.18,44.28a5.24,5.24,0,0,1-1.09.26l-1.44.27V43.35a5.17,5.17,0,0,0,3-1.59h1.46V56.34H33.18Z"/>
        <path d="M41.23,55.41a5.14,5.14,0,0,1-.85-3.17A4.63,4.63,0,0,1,40.84,50a3.74,3.74,0,0,1,1.34-1.37,3.66,3.66,0,0,1-1.62-3.26,4.15,4.15,0,0,1,.85-2.77,3.19,3.19,0,0,1,2.57-1,3.16,3.16,0,0,1,2.55,1,4.15,4.15,0,0,1,.84,2.77,4.08,4.08,0,0,1-.42,2,3.49,3.49,0,0,1-1.2,1.31A3.87,3.87,0,0,1,47.1,50a4.52,4.52,0,0,1,.47,2.2,5.15,5.15,0,0,1-.85,3.16A3.22,3.22,0,0,1,44,56.51,3.26,3.26,0,0,1,41.23,55.41Zm4.1-1.15a4.15,4.15,0,0,0,.38-2,4,4,0,0,0-.4-1.91A1.43,1.43,0,0,0,44,49.61a1.48,1.48,0,0,0-1.35.76,4,4,0,0,0-.41,1.91,4.14,4.14,0,0,0,.39,2A1.41,1.41,0,0,0,44,55,1.39,1.39,0,0,0,45.33,54.26Zm.15-9a3.05,3.05,0,0,0-.35-1.56,1.24,1.24,0,0,0-1.15-.6,1.27,1.27,0,0,0-1.16.6,3,3,0,0,0-.37,1.56,4,4,0,0,0,.35,1.77,1.24,1.24,0,0,0,1.18.72C45,47.76,45.48,46.94,45.48,45.29Z"/>
        <path d="M57.74,41.76h1.69L61,52.24l2-10.42H64.4l2,10.47,1.53-10.53h1.65L67.22,56.34H65.75l-2-10.8-2.05,10.8H60.11Z"/>
        <path d="M73.7,41.76h2V56.34h-2Z"/>
        <path d="M80.31,41.76h1.38l4.14,9.69V41.76h1.69V56.34H86.23l-4.2-10v10H80.31Z"/>
        <path d="M93.66,43.28H91.2V41.76h6.89v1.52H95.7V56.34h-2Z"/>
        <path d="M101.74,41.76h5.66v1.52h-3.62V48.1h2.93v1.44h-2.93v5.35h3.65v1.45h-5.69Z"/>
        <path d="M111.32,41.76h2.93a4.87,4.87,0,0,1,3.25.91,3.77,3.77,0,0,1,1,3c0,1.88-.6,3-1.8,3.41l2.07,7.3h-2l-1.91-6.84h-1.59v6.84h-2Zm2.81,6.29a2.74,2.74,0,0,0,1.88-.53,2.48,2.48,0,0,0,.57-1.89,4.06,4.06,0,0,0-.2-1.41,1.41,1.41,0,0,0-.7-.76,3.42,3.42,0,0,0-1.43-.24h-.9v4.83Z"/>
      </g>
    </g>
    <g>
      <g>
        <path d="M36.43,85a16.32,16.32,0,0,1-1.12,6.14A14,14,0,0,1,32.19,96a13.89,13.89,0,0,1-4.86,3.13,16.86,16.86,0,0,1-6.27,1.12H9.46V69.83h11.6A17.06,17.06,0,0,1,27.33,71a14.32,14.32,0,0,1,4.86,3.13,14,14,0,0,1,3.12,4.8A16.27,16.27,0,0,1,36.43,85Zm-5.78,0A13.87,13.87,0,0,0,30,80.53a9.52,9.52,0,0,0-1.91-3.36,8.25,8.25,0,0,0-3-2.11,10.41,10.41,0,0,0-4-.74H15.15V95.7h5.91a10.4,10.4,0,0,0,4-.73,8.37,8.37,0,0,0,3-2.11A9.52,9.52,0,0,0,30,89.5,13.94,13.94,0,0,0,30.65,85Z"/>
        <path d="M66.48,100.2H62.11a2,2,0,0,1-1.21-.37,2.17,2.17,0,0,1-.68-.91L58,92.72H45.37l-2.26,6.2a2.1,2.1,0,0,1-.67.88,1.87,1.87,0,0,1-1.2.4H36.85L48.78,69.83h5.77ZM46.82,88.73H56.5l-3.69-10.1c-.17-.45-.36-1-.56-1.59s-.4-1.27-.6-2c-.19.71-.39,1.38-.57,2s-.38,1.16-.56,1.62Z"/>
        <path d="M73.2,69.86a1.25,1.25,0,0,1,.45.13,1.53,1.53,0,0,1,.39.27c.12.12.26.28.42.47L90.4,91q-.09-.74-.12-1.44c0-.47,0-.9,0-1.31V69.83h5V100.2H92.31A2.56,2.56,0,0,1,91.2,100a2.5,2.5,0,0,1-.87-.76L74.46,79c0,.45.07.89.09,1.33s0,.84,0,1.21V100.2h-5V69.83h3A5.53,5.53,0,0,1,73.2,69.86Z"/>
        <path d="M117.63,75.35a1.49,1.49,0,0,1-.53.65,1.32,1.32,0,0,1-.73.19,1.88,1.88,0,0,1-.94-.32c-.35-.22-.76-.46-1.24-.73a11,11,0,0,0-1.67-.72,7,7,0,0,0-2.26-.33,6.56,6.56,0,0,0-2,.29,4.28,4.28,0,0,0-1.47.78,3.23,3.23,0,0,0-.9,1.21,4.11,4.11,0,0,0-.29,1.55,2.68,2.68,0,0,0,.6,1.78,5,5,0,0,0,1.58,1.22,14.84,14.84,0,0,0,2.25.9c.84.27,1.7.55,2.57.85a23.87,23.87,0,0,1,2.57,1,8.78,8.78,0,0,1,2.25,1.51A6.9,6.9,0,0,1,119,87.47a7.73,7.73,0,0,1,.6,3.21,10.47,10.47,0,0,1-.71,3.86,8.89,8.89,0,0,1-2.06,3.13,9.77,9.77,0,0,1-3.3,2.1,12.23,12.23,0,0,1-4.48.76,14.34,14.34,0,0,1-2.85-.28,15.06,15.06,0,0,1-2.7-.81,14.21,14.21,0,0,1-2.42-1.26,12.41,12.41,0,0,1-2-1.64l1.64-2.71a2.15,2.15,0,0,1,.55-.49,1.4,1.4,0,0,1,.73-.2,2,2,0,0,1,1.13.43q.62.44,1.44,1a11.08,11.08,0,0,0,1.95,1,7.5,7.5,0,0,0,2.7.43,5.56,5.56,0,0,0,3.74-1.14,4.13,4.13,0,0,0,1.32-3.29,3,3,0,0,0-.6-2,4.59,4.59,0,0,0-1.58-1.27,11.59,11.59,0,0,0-2.25-.87c-.84-.24-1.69-.5-2.56-.78a22.3,22.3,0,0,1-2.56-1,8.29,8.29,0,0,1-2.25-1.53,6.84,6.84,0,0,1-1.58-2.36,9,9,0,0,1-.6-3.5,8.39,8.39,0,0,1,2.59-6,9.62,9.62,0,0,1,3.12-2,11.35,11.35,0,0,1,4.22-.74,14.23,14.23,0,0,1,5,.84A11.14,11.14,0,0,1,119,72.69Z"/>
      </g>
      <g>
        <path d="M8.43,118l3.71-5.78a5.81,5.81,0,0,1,.36-.54,12.57,12.57,0,0,0,.92-1.68,4,4,0,0,0,.29-1.6,3.17,3.17,0,0,0-.34-1.6,1.22,1.22,0,0,0-1.12-.56c-1.15,0-1.73.9-1.73,2.68v.49H8.6v-.5a5.09,5.09,0,0,1,.84-3.15,3.2,3.2,0,0,1,2.72-1.1,3.31,3.31,0,0,1,2.61,1,4,4,0,0,1,.88,2.78,5.38,5.38,0,0,1-.21,1.57,5.16,5.16,0,0,1-.49,1.2q-.29.51-.9,1.44l-3.35,5.11h4.61v1.62H8.43Z"/>
        <path d="M20.5,118.34a5,5,0,0,1-.91-3.14v-6.28a5,5,0,0,1,.89-3.14,3.27,3.27,0,0,1,2.73-1.14,3.22,3.22,0,0,1,2.71,1.14,5,5,0,0,1,.89,3.14v6.28a5,5,0,0,1-.9,3.14,3.19,3.19,0,0,1-2.7,1.17A3.23,3.23,0,0,1,20.5,118.34Zm4.37-3.12V108.9a4.7,4.7,0,0,0-.35-2,1.54,1.54,0,0,0-2.62,0,4.53,4.53,0,0,0-.36,2v6.32c0,1.8.56,2.7,1.67,2.7S24.87,117,24.87,115.22Z"/>
        <path d="M33.18,107.28a5.24,5.24,0,0,1-1.09.26l-1.44.27v-1.46a5.17,5.17,0,0,0,3-1.59h1.46v14.58H33.18Z"/>
        <path d="M41.23,118.41a5.14,5.14,0,0,1-.85-3.17,4.63,4.63,0,0,1,.46-2.21,3.74,3.74,0,0,1,1.34-1.37,3.66,3.66,0,0,1-1.62-3.26,4.15,4.15,0,0,1,.85-2.77,3.19,3.19,0,0,1,2.57-1,3.16,3.16,0,0,1,2.55,1,4.15,4.15,0,0,1,.84,2.77,4.08,4.08,0,0,1-.42,1.95,3.49,3.49,0,0,1-1.2,1.31A3.87,3.87,0,0,1,47.1,113a4.52,4.52,0,0,1,.47,2.2,5.15,5.15,0,0,1-.85,3.16A3.22,3.22,0,0,1,44,119.51,3.26,3.26,0,0,1,41.23,118.41Zm4.1-1.15a4.15,4.15,0,0,0,.38-2,4,4,0,0,0-.4-1.91,1.43,1.43,0,0,0-1.33-.76,1.48,1.48,0,0,0-1.35.76,4,4,0,0,0-.41,1.91,4.14,4.14,0,0,0,.39,2A1.41,1.41,0,0,0,44,118,1.39,1.39,0,0,0,45.33,117.26Zm.15-9a3.05,3.05,0,0,0-.35-1.56,1.24,1.24,0,0,0-1.15-.6,1.27,1.27,0,0,0-1.16.6,3,3,0,0,0-.37,1.56,4,4,0,0,0,.35,1.77,1.24,1.24,0,0,0,1.18.72C45,110.76,45.48,109.94,45.48,108.29Z"/>
        <path d="M57.74,104.76h1.69L61,115.24l2-10.42H64.4l2,10.47,1.53-10.53h1.65l-2.34,14.58H65.75l-2-10.8-2.05,10.8H60.11Z"/>
        <path d="M73.7,104.76h2v14.58h-2Z"/>
        <path d="M80.31,104.76h1.38l4.14,9.69v-9.69h1.69v14.58H86.23l-4.2-10v10H80.31Z"/>
        <path d="M93.66,106.28H91.2v-1.52h6.89v1.52H95.7v13.06h-2Z"/>
        <path d="M101.74,104.76h5.66v1.52h-3.62v4.82h2.93v1.44h-2.93v5.35h3.65v1.45h-5.69Z"/>
        <path d="M111.32,104.76h2.93a4.87,4.87,0,0,1,3.25.91,3.77,3.77,0,0,1,1,3c0,1.88-.6,3-1.8,3.41l2.07,7.3h-2l-1.91-6.84h-1.59v6.84h-2Zm2.81,6.29a2.74,2.74,0,0,0,1.88-.53,2.48,2.48,0,0,0,.57-1.89,4.06,4.06,0,0,0-.2-1.41,1.41,1.41,0,0,0-.7-.76,3.42,3.42,0,0,0-1.43-.24h-.9v4.83Z"/>
      </g>
    </g>
    <g>
      <g>
        <path d="M36.43,148a16.32,16.32,0,0,1-1.12,6.14,14,14,0,0,1-3.12,4.8,13.89,13.89,0,0,1-4.86,3.13,16.86,16.86,0,0,1-6.27,1.12H9.46V132.83h11.6A17.06,17.06,0,0,1,27.33,134a14.32,14.32,0,0,1,4.86,3.13,14,14,0,0,1,3.12,4.8A16.27,16.27,0,0,1,36.43,148Zm-5.78,0a13.87,13.87,0,0,0-.67-4.48,9.52,9.52,0,0,0-1.91-3.36,8.25,8.25,0,0,0-3-2.11,10.41,10.41,0,0,0-4-.74H15.15V158.7h5.91a10.4,10.4,0,0,0,4-.73,8.37,8.37,0,0,0,3-2.11A9.52,9.52,0,0,0,30,152.5,13.94,13.94,0,0,0,30.65,148Z" style="fill: #fff"/>
        <path d="M66.48,163.2H62.11a2,2,0,0,1-1.21-.37,2.17,2.17,0,0,1-.68-.91L58,155.72H45.37l-2.26,6.2a2.1,2.1,0,0,1-.67.88,1.87,1.87,0,0,1-1.2.4H36.85l11.93-30.37h5.77ZM46.82,151.73H56.5l-3.69-10.1c-.17-.45-.36-1-.56-1.59s-.4-1.27-.6-2c-.19.71-.39,1.38-.57,2s-.38,1.16-.56,1.62Z" style="fill: #fff"/>
        <path d="M73.2,132.86a1.25,1.25,0,0,1,.45.13,1.53,1.53,0,0,1,.39.27c.12.12.26.28.42.47L90.4,154q-.09-.73-.12-1.44c0-.47,0-.9,0-1.31V132.83h5V163.2H92.31A2.56,2.56,0,0,1,91.2,163a2.5,2.5,0,0,1-.87-.76L74.46,142c0,.45.07.89.09,1.33s0,.84,0,1.21V163.2h-5V132.83h3A5.53,5.53,0,0,1,73.2,132.86Z" style="fill: #fff"/>
        <path d="M117.63,138.35a1.49,1.49,0,0,1-.53.65,1.32,1.32,0,0,1-.73.19,1.88,1.88,0,0,1-.94-.32c-.35-.22-.76-.46-1.24-.73a11,11,0,0,0-1.67-.72,7,7,0,0,0-2.26-.33,6.56,6.56,0,0,0-2,.29,4.28,4.28,0,0,0-1.47.78,3.23,3.23,0,0,0-.9,1.21,4.11,4.11,0,0,0-.29,1.55,2.68,2.68,0,0,0,.6,1.78,5,5,0,0,0,1.58,1.22,14.84,14.84,0,0,0,2.25.9c.84.27,1.7.55,2.57.85a23.87,23.87,0,0,1,2.57,1.05,8.78,8.78,0,0,1,2.25,1.51,6.9,6.9,0,0,1,1.59,2.24,7.73,7.73,0,0,1,.6,3.21,10.47,10.47,0,0,1-.71,3.86,8.89,8.89,0,0,1-2.06,3.13,9.77,9.77,0,0,1-3.3,2.1,12.23,12.23,0,0,1-4.48.76,14.34,14.34,0,0,1-2.85-.28,15.06,15.06,0,0,1-2.7-.81,14.21,14.21,0,0,1-2.42-1.26,12.41,12.41,0,0,1-2-1.64l1.64-2.71a2.15,2.15,0,0,1,.55-.49,1.4,1.4,0,0,1,.73-.2,2,2,0,0,1,1.13.43q.62.44,1.44,1a11.08,11.08,0,0,0,1.95.95,7.5,7.5,0,0,0,2.7.43,5.56,5.56,0,0,0,3.74-1.14,4.13,4.13,0,0,0,1.32-3.29,3,3,0,0,0-.6-1.95,4.59,4.59,0,0,0-1.58-1.27,11.59,11.59,0,0,0-2.25-.87c-.84-.24-1.69-.5-2.56-.78a22.3,22.3,0,0,1-2.56-1,8.29,8.29,0,0,1-2.25-1.53,6.84,6.84,0,0,1-1.58-2.36,9,9,0,0,1-.6-3.5,8.39,8.39,0,0,1,2.59-6,9.62,9.62,0,0,1,3.12-2,11.35,11.35,0,0,1,4.22-.74,14.23,14.23,0,0,1,5,.84,11.14,11.14,0,0,1,3.86,2.36Z" style="fill: #fff"/>
      </g>
      <g>
        <path d="M8.43,181l3.71-5.78a5.81,5.81,0,0,1,.36-.54,12.57,12.57,0,0,0,.92-1.68,4,4,0,0,0,.29-1.6,3.17,3.17,0,0,0-.34-1.6,1.22,1.22,0,0,0-1.12-.56c-1.15,0-1.73.9-1.73,2.68v.49H8.6v-.5a5.09,5.09,0,0,1,.84-3.15,3.2,3.2,0,0,1,2.72-1.1,3.31,3.31,0,0,1,2.61,1,4,4,0,0,1,.88,2.78,5.38,5.38,0,0,1-.21,1.57,5.16,5.16,0,0,1-.49,1.2q-.29.51-.9,1.44l-3.35,5.11h4.61v1.62H8.43Z" style="fill: #fff"/>
        <path d="M20.5,181.34a5,5,0,0,1-.91-3.14v-6.28a5,5,0,0,1,.89-3.14,3.27,3.27,0,0,1,2.73-1.14,3.22,3.22,0,0,1,2.71,1.14,5,5,0,0,1,.89,3.14v6.28a5,5,0,0,1-.9,3.14,3.19,3.19,0,0,1-2.7,1.17A3.23,3.23,0,0,1,20.5,181.34Zm4.37-3.12V171.9a4.7,4.7,0,0,0-.35-2,1.54,1.54,0,0,0-2.62,0,4.53,4.53,0,0,0-.36,2v6.32c0,1.8.56,2.7,1.67,2.7S24.87,180,24.87,178.22Z" style="fill: #fff"/>
        <path d="M33.18,170.28a5.24,5.24,0,0,1-1.09.26l-1.44.27v-1.46a5.17,5.17,0,0,0,3-1.59h1.46v14.58H33.18Z" style="fill: #fff"/>
        <path d="M41.23,181.41a5.14,5.14,0,0,1-.85-3.17,4.63,4.63,0,0,1,.46-2.21,3.74,3.74,0,0,1,1.34-1.37,3.66,3.66,0,0,1-1.62-3.26,4.15,4.15,0,0,1,.85-2.77,3.19,3.19,0,0,1,2.57-1,3.16,3.16,0,0,1,2.55,1,4.15,4.15,0,0,1,.84,2.77,4.08,4.08,0,0,1-.42,1.95,3.49,3.49,0,0,1-1.2,1.31A3.87,3.87,0,0,1,47.1,176a4.52,4.52,0,0,1,.47,2.2,5.15,5.15,0,0,1-.85,3.16A3.22,3.22,0,0,1,44,182.51,3.26,3.26,0,0,1,41.23,181.41Zm4.1-1.15a4.15,4.15,0,0,0,.38-2,4,4,0,0,0-.4-1.91,1.43,1.43,0,0,0-1.33-.76,1.48,1.48,0,0,0-1.35.76,4,4,0,0,0-.41,1.91,4.14,4.14,0,0,0,.39,2A1.41,1.41,0,0,0,44,181,1.39,1.39,0,0,0,45.33,180.26Zm.15-9a3.05,3.05,0,0,0-.35-1.56,1.24,1.24,0,0,0-1.15-.6,1.27,1.27,0,0,0-1.16.6,3,3,0,0,0-.37,1.56,4,4,0,0,0,.35,1.77,1.24,1.24,0,0,0,1.18.72C45,173.76,45.48,172.94,45.48,171.29Z" style="fill: #fff"/>
        <path d="M57.74,167.76h1.69L61,178.24l2-10.42H64.4l2,10.47,1.53-10.53h1.65l-2.34,14.58H65.75l-2-10.8-2.05,10.8H60.11Z" style="fill: #fff"/>
        <path d="M73.7,167.76h2v14.58h-2Z" style="fill: #fff"/>
        <path d="M80.31,167.76h1.38l4.14,9.69v-9.69h1.69v14.58H86.23l-4.2-10v10H80.31Z" style="fill: #fff"/>
        <path d="M93.66,169.28H91.2v-1.52h6.89v1.52H95.7v13.06h-2Z" style="fill: #fff"/>
        <path d="M101.74,167.76h5.66v1.52h-3.62v4.82h2.93v1.44h-2.93v5.35h3.65v1.45h-5.69Z" style="fill: #fff"/>
        <path d="M111.32,167.76h2.93a4.87,4.87,0,0,1,3.25.91,3.77,3.77,0,0,1,1,3c0,1.88-.6,3-1.8,3.41l2.07,7.3h-2l-1.91-6.84h-1.59v6.84h-2Zm2.81,6.29a2.74,2.74,0,0,0,1.88-.53,2.48,2.48,0,0,0,.57-1.89,4.06,4.06,0,0,0-.2-1.41,1.41,1.41,0,0,0-.7-.76,3.42,3.42,0,0,0-1.43-.24h-.9v4.83Z" style="fill: #fff"/>
      </g>
    </g>
  </g>
</svg>
